<svg version="1.1" viewBox="0.0 0.0 512.0 512.0" fill="none" stroke="none" stroke-linecap="square" stroke-miterlimit="10" xmlns:xlink="http://www.w3.org/1999/xlink" xmlns="http://www.w3.org/2000/svg"><clipPath id="p.0"><path d="m0 0l512.0 0l0 512.0l-512.0 0l0 -512.0z" clip-rule="nonzero"/></clipPath><g clip-path="url(#p.0)"><path fill="#000000" fill-opacity="0.0" d="m0 0l512.0 0l0 512.0l-512.0 0z" fill-rule="evenodd"/><path fill="#000000" d="m8.136483E-6 7.874016E-6l512.0 0l0 512.0315l-512.0 0z" fill-rule="evenodd"/><path stroke="#000000" stroke-width="1.246719160104987" stroke-linejoin="round" stroke-linecap="butt" d="m8.136483E-6 7.874016E-6l512.0 0l0 512.0315l-512.0 0z" fill-rule="evenodd"/><path fill="#ffffff" d="m45.29215 30.518402l421.44882 0l0 450.99213l-421.44882 0z" fill-rule="evenodd"/><path stroke="#000000" stroke-width="1.246719160104987" stroke-linejoin="round" stroke-linecap="butt" d="m45.29215 30.518402l421.44882 0l0 450.99213l-421.44882 0z" fill-rule="evenodd"/><path fill="#000000" fill-opacity="0.0" d="m133.86646 121.361824l248.56693 0l0 265.98425l-248.56693 0z" fill-rule="evenodd"/><path fill="#000000" d="m229.96034 195.12065l28.98439 0q14.59375 0 21.546875 7.046875q6.953125 7.03125 6.953125 21.140625l0 4.46875q0 9.21875 -3.140625 15.3125q-3.140625 6.09375 -10.171875 6.875l-0.046875 -0.328125q15.109375 3.015625 15.109375 23.624985l0 9.578125q0 13.96875 -7.515625 21.484375q-7.5 7.5 -21.625 7.5l-30.093765 0l0 -116.70311zm26.906265 45.484375q4.21875 0 6.125 -1.96875q1.921875 -1.984375 1.921875 -7.359375l0 -6.21875q0 -5.203125 -1.515625 -7.109375q-1.515625 -1.90625 -4.9375 -1.90625l-5.9687653 0l0 24.5625l4.3750153 0zm3.1875 50.281235q3.53125 0 5.078125 -1.703125q1.546875 -1.703125 1.546875 -6.828125l0 -9.734375q0 -6.703125 -1.953125 -8.890625q-1.953125 -2.1875 -6.90625 -2.1875l-5.3281403 0l0 29.34375l7.5625153 0z" fill-rule="nonzero"/><path fill="#000000" d="m90.12542 83.65197l292.31494 0l-93.789246 97.43734l-101.08836 0l0 105.02037l-97.43734 101.227325z" fill-rule="evenodd"/><path stroke="#000000" stroke-width="1.246719160104987" stroke-linejoin="round" stroke-linecap="butt" d="m90.12542 83.65197l292.31494 0l-93.789246 97.43734l-101.08836 0l0 105.02037l-97.43734 101.227325z" fill-rule="evenodd"/><path fill="#000000" d="m426.1714 425.0551l-292.31497 0l93.78926 -97.43735l101.08836 0l0 -105.02037l97.43735 -101.22733z" fill-rule="evenodd"/><path stroke="#000000" stroke-width="1.246719160104987" stroke-linejoin="round" stroke-linecap="butt" d="m426.1714 425.0551l-292.31497 0l93.78926 -97.43735l101.08836 0l0 -105.02037l97.43735 -101.22733z" fill-rule="evenodd"/></g></svg>