# Blender 5.1.0
# www.blender.org
mtllib dev_arrow.mtl
o Cylinder
v 0.000000 -1.000000 -0.200000
v 0.000000 1.000000 -0.200000
v 0.051764 -1.000000 -0.193185
v 0.051764 1.000000 -0.193185
v 0.100000 -1.000000 -0.173205
v 0.100000 1.000000 -0.173205
v 0.141421 -1.000000 -0.141421
v 0.141421 1.000000 -0.141421
v 0.173205 -1.000000 -0.100000
v 0.173205 1.000000 -0.100000
v 0.193185 -1.000000 -0.051764
v 0.193185 1.000000 -0.051764
v 0.200000 -1.000000 0.000000
v 0.200000 1.000000 0.000000
v 0.193185 -1.000000 0.051764
v 0.193185 1.000000 0.051764
v 0.173205 -1.000000 0.100000
v 0.173205 1.000000 0.100000
v 0.141421 -1.000000 0.141421
v 0.141421 1.000000 0.141421
v 0.100000 -1.000000 0.173205
v 0.100000 1.000000 0.173205
v 0.051764 -1.000000 0.193185
v 0.051764 1.000000 0.193185
v 0.000000 -1.000000 0.200000
v 0.000000 1.000000 0.200000
v -0.051764 -1.000000 0.193185
v -0.051764 1.000000 0.193185
v -0.100000 -1.000000 0.173205
v -0.100000 1.000000 0.173205
v -0.141421 -1.000000 0.141421
v -0.141421 1.000000 0.141421
v -0.173205 -1.000000 0.100000
v -0.173205 1.000000 0.100000
v -0.193185 -1.000000 0.051764
v -0.193185 1.000000 0.051764
v -0.200000 -1.000000 0.000000
v -0.200000 1.000000 0.000000
v -0.193185 -1.000000 -0.051764
v -0.193185 1.000000 -0.051764
v -0.173205 -1.000000 -0.100000
v -0.173205 1.000000 -0.100000
v -0.141421 -1.000000 -0.141421
v -0.141421 1.000000 -0.141421
v -0.100000 -1.000000 -0.173205
v -0.100000 1.000000 -0.173205
v -0.051764 -1.000000 -0.193185
v -0.051764 1.000000 -0.193185
vn 0.1305 -0.0000 -0.9914
vn 0.3827 -0.0000 -0.9239
vn 0.6088 -0.0000 -0.7934
vn 0.7934 -0.0000 -0.6088
vn 0.9239 -0.0000 -0.3827
vn 0.9914 -0.0000 -0.1305
vn 0.9914 -0.0000 0.1305
vn 0.9239 -0.0000 0.3827
vn 0.7934 -0.0000 0.6088
vn 0.6088 -0.0000 0.7934
vn 0.3827 -0.0000 0.9239
vn 0.1305 -0.0000 0.9914
vn -0.1305 -0.0000 0.9914
vn -0.3827 -0.0000 0.9239
vn -0.6088 -0.0000 0.7934
vn -0.7934 -0.0000 0.6088
vn -0.9239 -0.0000 0.3827
vn -0.9914 -0.0000 0.1305
vn -0.9914 -0.0000 -0.1305
vn -0.9239 -0.0000 -0.3827
vn -0.7934 -0.0000 -0.6088
vn -0.6088 -0.0000 -0.7934
vn -0.3827 -0.0000 -0.9239
vn -0.1305 -0.0000 -0.9914
vt 1.000000 0.000000
vt 1.000000 1.000000
vt 0.958333 1.000000
vt 0.958333 0.000000
vt 0.916667 1.000000
vt 0.916667 0.000000
vt 0.875000 1.000000
vt 0.875000 0.000000
vt 0.833333 1.000000
vt 0.833333 0.000000
vt 0.791667 1.000000
vt 0.791667 0.000000
vt 0.750000 1.000000
vt 0.750000 0.000000
vt 0.708333 1.000000
vt 0.708333 0.000000
vt 0.666667 1.000000
vt 0.666667 0.000000
vt 0.625000 1.000000
vt 0.625000 0.000000
vt 0.583333 1.000000
vt 0.583333 0.000000
vt 0.541666 1.000000
vt 0.541666 0.000000
vt 0.500000 1.000000
vt 0.500000 0.000000
vt 0.458333 1.000000
vt 0.458333 0.000000
vt 0.416666 1.000000
vt 0.416666 0.000000
vt 0.375000 1.000000
vt 0.375000 0.000000
vt 0.333333 1.000000
vt 0.333333 0.000000
vt 0.291667 1.000000
vt 0.291667 0.000000
vt 0.250000 1.000000
vt 0.250000 0.000000
vt 0.208333 1.000000
vt 0.208333 0.000000
vt 0.166666 1.000000
vt 0.166666 0.000000
vt 0.125000 1.000000
vt 0.125000 0.000000
vt 0.083333 1.000000
vt 0.083333 0.000000
vt 0.041666 1.000000
vt 0.041666 0.000000
vt -0.000000 1.000000
vt -0.000000 0.000000
s 0
f 1/1/1 2/2/1 4/3/1 3/4/1
f 3/4/2 4/3/2 6/5/2 5/6/2
f 5/6/3 6/5/3 8/7/3 7/8/3
f 7/8/4 8/7/4 10/9/4 9/10/4
f 9/10/5 10/9/5 12/11/5 11/12/5
f 11/12/6 12/11/6 14/13/6 13/14/6
f 13/14/7 14/13/7 16/15/7 15/16/7
f 15/16/8 16/15/8 18/17/8 17/18/8
f 17/18/9 18/17/9 20/19/9 19/20/9
f 19/20/10 20/19/10 22/21/10 21/22/10
f 21/22/11 22/21/11 24/23/11 23/24/11
f 23/24/12 24/23/12 26/25/12 25/26/12
f 25/26/13 26/25/13 28/27/13 27/28/13
f 27/28/14 28/27/14 30/29/14 29/30/14
f 29/30/15 30/29/15 32/31/15 31/32/15
f 31/32/16 32/31/16 34/33/16 33/34/16
f 33/34/17 34/33/17 36/35/17 35/36/17
f 35/36/18 36/35/18 38/37/18 37/38/18
f 37/38/19 38/37/19 40/39/19 39/40/19
f 39/40/20 40/39/20 42/41/20 41/42/20
f 41/42/21 42/41/21 44/43/21 43/44/21
f 43/44/22 44/43/22 46/45/22 45/46/22
f 45/46/23 46/45/23 48/47/23 47/48/23
f 47/48/24 48/47/24 2/49/24 1/50/24
o Cone
v 0.000000 0.898584 -0.500000
v 0.191342 0.898584 -0.461940
v 0.353553 0.898584 -0.353553
v 0.461940 0.898584 -0.191342
v 0.500000 0.898584 0.000000
v 0.461940 0.898584 0.191342
v 0.353553 0.898584 0.353553
v 0.191342 0.898584 0.461940
v 0.000000 0.898584 0.500000
v -0.191342 0.898584 0.461940
v -0.353553 0.898584 0.353553
v -0.461940 0.898584 0.191342
v -0.500000 0.898584 0.000000
v -0.461940 0.898584 -0.191342
v -0.353553 0.898584 -0.353553
v -0.191342 0.898584 -0.461940
v 0.000000 1.898584 0.000000
vn 0.1752 0.4403 -0.8806
vn 0.4988 0.4403 -0.7465
vn 0.7465 0.4403 -0.4988
vn 0.8806 0.4403 -0.1752
vn 0.8806 0.4403 0.1752
vn 0.7465 0.4403 0.4988
vn 0.4988 0.4403 0.7465
vn 0.1752 0.4403 0.8806
vn -0.1752 0.4403 0.8806
vn -0.4988 0.4403 0.7465
vn -0.7465 0.4403 0.4988
vn -0.8806 0.4403 0.1752
vn -0.8806 0.4403 -0.1752
vn -0.7465 0.4403 -0.4988
vn -0.4988 0.4403 -0.7465
vn -0.1752 0.4403 -0.8806
vt 0.500000 1.000000
vt 0.500000 0.500000
vt 0.691342 0.961940
vt 0.853553 0.853553
vt 0.961940 0.691342
vt 1.000000 0.500000
vt 0.961940 0.308658
vt 0.853553 0.146447
vt 0.691342 0.038060
vt 0.500000 0.000000
vt 0.308658 0.038060
vt 0.146447 0.146447
vt 0.038060 0.308658
vt 0.000000 0.500000
vt 0.038060 0.691342
vt 0.146447 0.853553
vt 0.308658 0.961940
s 0
f 49/51/25 65/52/25 50/53/25
f 50/53/26 65/52/26 51/54/26
f 51/54/27 65/52/27 52/55/27
f 52/55/28 65/52/28 53/56/28
f 53/56/29 65/52/29 54/57/29
f 54/57/30 65/52/30 55/58/30
f 55/58/31 65/52/31 56/59/31
f 56/59/32 65/52/32 57/60/32
f 57/60/33 65/52/33 58/61/33
f 58/61/34 65/52/34 59/62/34
f 59/62/35 65/52/35 60/63/35
f 60/63/36 65/52/36 61/64/36
f 61/64/37 65/52/37 62/65/37
f 62/65/38 65/52/38 63/66/38
f 63/66/39 65/52/39 64/67/39
f 64/67/40 65/52/40 49/51/40
