<svg version="1.1" viewBox="0.0 0.0 64.0 64.0" fill="none" stroke="none" stroke-linecap="square" stroke-miterlimit="10" xmlns:xlink="http://www.w3.org/1999/xlink" xmlns="http://www.w3.org/2000/svg"><clipPath id="p.0"><path d="m0 0l64.0 0l0 64.0l-64.0 0l0 -64.0z" clip-rule="nonzero"/></clipPath><g clip-path="url(#p.0)"><path fill="#000000" fill-opacity="0.0" d="m0 0l64.0 0l0 64.0l-64.0 0z" fill-rule="evenodd"/><path fill="#ffffff" d="m10.818897 32.0l0 0c0 -11.698 9.483103 -21.181103 21.181103 -21.181103l0 0c5.6175766 0 11.005074 2.231574 14.977303 6.203802c3.9722252 3.972227 6.2038 9.359722 6.2038 14.977301l0 0c0 11.697998 -9.483105 21.181103 -21.181103 21.181103l0 0c-11.698 0 -21.181103 -9.483105 -21.181103 -21.181103zm2.3807564 0l0 0c0 10.383144 8.417202 18.800346 18.800346 18.800346c10.383144 0 18.800346 -8.417202 18.800346 -18.800346l0 0c0 -10.383144 -8.417202 -18.800346 -18.800346 -18.800346l0 0c-10.383144 0 -18.800346 8.417202 -18.800346 18.800346z" fill-rule="evenodd"/><path stroke="#ffffff" stroke-width="1.0" stroke-linejoin="round" stroke-linecap="butt" d="m10.818897 32.0l0 0c0 -11.698 9.483103 -21.181103 21.181103 -21.181103l0 0c5.6175766 0 11.005074 2.231574 14.977303 6.203802c3.9722252 3.972227 6.2038 9.359722 6.2038 14.977301l0 0c0 11.697998 -9.483105 21.181103 -21.181103 21.181103l0 0c-11.698 0 -21.181103 -9.483105 -21.181103 -21.181103zm2.3807564 0l0 0c0 10.383144 8.417202 18.800346 18.800346 18.800346c10.383144 0 18.800346 -8.417202 18.800346 -18.800346l0 0c0 -10.383144 -8.417202 -18.800346 -18.800346 -18.800346l0 0c-10.383144 0 -18.800346 8.417202 -18.800346 18.800346z" fill-rule="evenodd"/></g></svg>